#!OML:ASF H:\Pregnant\Project 1\Capture day 1\Session 1\femalepreg.ASF
:FULLY-SPECIFIED
:DEGREES
846
root 22.6507 15.6099 -8.03188 -160.228 180.874 -175.557
lowerback -12.3237 -2.18983 -11.9837
upperback -5.18349 -1.45168 -3.03869
thorax 1.59869 -0.610056 3.32219
lowerneck -15.7575 -3.57332 -1.13331
upperneck 23.1393 -5.39614 2.58878
head 10.0768 -2.29483 0.381764
rclavicle -2.6339e-015 3.97569e-014
rhumerus -34.2363 5.25692 -85.853
rradius 37.9685
rwrist -8.16269
rhand -11.2425 -13.3166
rfingers 7.12502
rthumb 14.7869 -42.7691
lclavicle -2.6339e-015 3.97569e-014
lhumerus -26.7239 -13.364 85.852
lradius 32.3089
lwrist 41.7726
lhand -18.2731 -7.83057
lfingers 7.12502
lthumb 8.00678 21.9978
rfemur -60.1201 14.6785 7.71451
rtibia 33.3467
rfoot -9.45735 -17.9124
rtoes -14.5828
lfemur -5.40929 -5.48843 -31.1918
ltibia 1.11319e-014
lfoot -9.30248 -5.03788
ltoes -16.6537
847
root 22.646 15.5987 -7.91502 -160.099 180.536 -175.416
lowerback -12.4506 -2.25603 -11.8897
upperback -5.26972 -1.53871 -2.96961
thorax 1.58875 -0.649745 3.32904
lowerneck -15.6235 -3.90392 -1.40326
upperneck 23.0032 -5.75278 2.46731
head 10.0141 -2.50106 0.339637
rclavicle 1.10325e-014 -1.11319e-014
rhumerus -34.4066 5.31242 -85.8671
rradius 37.6882
rwrist -8.11353
rhand -11.0912 -13.2744
rfingers 7.12502
rthumb 14.9327 -42.7161
lclavicle 1.10325e-014 -1.11319e-014
lhumerus -27.2604 -13.527 86.0773
lradius 32.3343
lwrist 41.6465
lhand -17.9451 -7.81693
lfingers 7.12502
lthumb 8.3233 21.9991
rfemur -60.3744 15.3532 6.74425
rtibia 33.0087
rfoot -9.54409 -18.7575
rtoes -14.3426
lfemur -5.10256 -5.79832 -31.2343
ltibia -4.77083e-015
lfoot -9.40885 -5.12557
ltoes -16.8781
848
root 22.6417 15.5853 -7.79618 -159.978 180.206 -175.284
lowerback -12.6298 -2.30828 -11.7581
upperback -5.33246 -1.60135 -2.91205
thorax 1.62801 -0.681169 3.30483
lowerneck -15.4647 -4.24357 -1.67846
upperneck 22.8336 -6.12648 2.36855
head 9.93707 -2.71359 0.305449
rclavicle -1.90833e-014 8.74653e-015
rhumerus -34.5248 5.31127 -85.8724
rradius 37.335
rwrist -8.02945
rhand -10.9407 -13.2426
rfingers 7.12502
rthumb 15.0776 -42.6735
lclavicle -1.90833e-014 8.74653e-015
lhumerus -27.7528 -13.7141 86.2854
lradius 32.3085
lwrist 41.5477
lhand -17.6466 -7.80583
lfingers 7.12502
lthumb 8.61142 21.9985
rfemur -60.5798 16.0241 5.81333
rtibia 32.736
rfoot -9.61701 -19.4902
rtoes -14.1499
lfemur -4.77171 -6.09632 -31.27
ltibia -1.11319e-014
lfoot -9.5097 -5.21475
ltoes -17.1516
849
root 22.6373 15.5695 -7.67538 -159.869 179.884 -175.163
lowerback -12.8846 -2.34694 -11.5973
upperback -5.35391 -1.63444 -2.86495
thorax 1.74749 -0.703646 3.25508
lowerneck -15.2529 -4.58522 -1.96728
upperneck 22.5895 -6.51019 2.31704
head 9.82721 -2.92798 0.2913
rclavicle -2.30093e-014 -3.18055e-014
rhumerus -34.5953 5.27277 -85.8704
rradius 36.9561
rwrist -7.93115
rhand -10.7994 -13.2059
rfingers 7.12502
rthumb 15.2138 -42.6265
lclavicle -2.30093e-014 -3.18055e-014
lhumerus -28.1865 -13.9337 86.4724
lradius 32.2527
lwrist 41.4852
lhand -17.3723 -7.76677
lfingers 7.12502
lthumb 8.87605 22.0265
rfemur -60.7175 16.6639 4.96452
rtibia 32.5199
rfoot -9.6779 -20.0876
rtoes -14.0063
lfemur -4.41038 -6.38097 -31.2983
ltibia 4.13472e-014
lfoot -9.60845 -5.29711
ltoes -17.5113
850
root 22.6332 15.5518 -7.55314 -159.768 179.568 -175.06
lowerback -13.1969 -2.37426 -11.3987
upperback -5.34558 -1.64682 -2.82231
thorax 1.92622 -0.719942 3.18085
lowerneck -15.006 -4.92707 -2.26097
upperneck 22.2959 -6.89969 2.29263
head 9.69626 -3.14332 0.28895
rclavicle 1.83876e-014 2.46493e-014
rhumerus -34.617 5.19803 -85.8584
rradius 36.5286
rwrist -7.79401
rhand -10.671 -13.1672
rfingers 7.12502
rthumb 15.3374 -42.5784
lclavicle 1.83876e-014 2.46493e-014
lhumerus -28.5677 -14.162 86.6379
lradius 32.1465
lwrist 41.4502
lhand -17.1293 -7.74489
lfingers 7.12502
lthumb 9.11054 22.0383
rfemur -60.7731 17.2286 4.25646
rtibia 32.3568
rfoot -9.66183 -20.5127
rtoes -14.0469
lfemur -4.02805 -6.65164 -31.3123
ltibia -1.27222e-014
lfoot -9.69113 -5.38011
ltoes -17.8793
851
root 22.6296 15.5329 -7.42946 -159.68 179.26 -174.968
lowerback -13.5769 -2.39086 -11.1751
upperback -5.29681 -1.63635 -2.77976
thorax 2.18099 -0.729646 3.0938
lowerneck -14.7762 -5.28215 -2.54376
upperneck 21.9877 -7.3075 2.25409
head 9.56473 -3.3676 0.278391
rclavicle -9.98893e-015 5.56597e-015
rhumerus -34.5794 5.10434 -85.8296
rradius 36.0613
rwrist -7.61695
rhand -10.554 -13.1305
rfingers 7.12502
rthumb 15.4501 -42.5331
lclavicle -9.98893e-015 5.56597e-015
lhumerus -28.9026 -14.4042 86.7895
lradius 32.0226
lwrist 41.4493
lhand -16.9304 -7.68042
lfingers 7.12502
lthumb 9.30251 22.0943
rfemur -60.7307 17.6728 3.73998
rtibia 32.2541
rfoot -9.5253 -20.7113
rtoes -14.3504
lfemur -3.62745 -6.90919 -31.3201
ltibia 3.81667e-014
lfoot -9.75087 -5.46063
ltoes -18.2729
852
root 22.626 15.5133 -7.30396 -159.605 178.953 -174.886
lowerback -13.9276 -2.40605 -10.9294
upperback -5.27566 -1.63611 -2.73103
thorax 2.39122 -0.741083 3.00051
lowerneck -14.5119 -5.6275 -2.84001
upperneck 21.6943 -7.70273 2.22068
head 9.43431 -3.58674 0.275308
rclavicle -2.72335e-014 -7.15625e-015
rhumerus -34.591 5.03766 -85.8065
rradius 35.5758
rwrist -7.4038
rhand -10.4452 -13.104
rfingers 7.12502
rthumb 15.5549 -42.4985
lclavicle -2.72335e-014 -7.15625e-015
lhumerus -29.3038 -14.6147 86.9348
lradius 31.8915
lwrist 41.471
lhand -16.7772 -7.54685
lfingers 7.12502
lthumb 9.4503 22.2213
rfemur -60.5885 17.9819 3.43509
rtibia 32.2313
rfoot -9.19772 -20.6395
rtoes -14.8589
lfemur -3.20041 -7.16015 -31.3229
ltibia 1.59028e-014
lfoot -9.79496 -5.53239
ltoes -18.7256
